<?xml version="1.0" standalone="no"?>
<!DOCTYPE svg PUBLIC "-//W3C//DTD SVG 20010904//EN"
 "http://www.w3.org/TR/2001/REC-SVG-20010904/DTD/svg10.dtd">
<svg version="1.0" xmlns="http://www.w3.org/2000/svg"
 width="64.000000pt" height="64.000000pt" viewBox="0 0 64.000000 64.000000"
 preserveAspectRatio="xMidYMid meet">

<g transform="translate(0.000000,64.000000) scale(0.100000,-0.100000)"
fill="#000000" stroke="none">
<path d="M310 485 l0 -155 -155 0 c-97 0 -155 -4 -155 -10 0 -6 58 -10 155
-10 l155 0 0 -155 c0 -97 4 -155 10 -155 6 0 10 58 10 155 l0 155 155 0 c97 0
155 4 155 10 0 6 -58 10 -155 10 l-155 0 0 155 c0 97 -4 155 -10 155 -6 0 -10
-58 -10 -155z"/>
<path d="M115 599 c-88 -24 -113 -133 -45 -200 23 -23 37 -29 72 -29 24 0 53
6 64 14 17 13 13 14 -38 9 -54 -5 -59 -4 -87 25 -81 81 14 212 112 155 52 -31
67 -78 42 -135 -4 -11 -3 -18 4 -18 6 0 16 12 22 27 32 86 -54 176 -146 152z"/>
<path d="M535 569 l-46 -42 -38 37 c-38 37 -70 45 -78 19 -3 -7 14 -32 36 -55
l40 -43 -40 -41 c-27 -27 -38 -46 -33 -57 11 -29 64 -14 64 17 0 6 -5 5 -12
-2 -7 -7 -19 -12 -27 -12 -9 0 1 17 27 43 23 23 42 47 42 52 0 5 -18 28 -41
51 -22 23 -37 44 -32 47 6 4 27 -12 48 -33 22 -22 44 -40 49 -40 6 0 30 19 53
42 26 26 43 36 43 27 0 -8 -18 -33 -40 -54 l-40 -39 42 -43 c55 -56 41 -69
-15 -15 -42 41 -44 42 -60 24 -21 -23 -22 -39 -2 -22 13 11 22 7 53 -23 40
-39 69 -47 79 -21 3 10 -8 29 -31 53 -20 20 -36 41 -36 47 0 6 16 25 35 44 38
37 42 51 21 70 -12 9 -23 4 -61 -31z"/>
<path d="M94 546 c-73 -62 5 -179 89 -134 53 28 64 92 22 133 -31 32 -75 32
-111 1z m98 -13 c26 -23 24 -78 -4 -97 -33 -23 -64 -19 -87 10 -26 33 -27 58
-1 84 24 24 67 26 92 3z"/>
<path d="M33 254 c-3 -10 8 -29 31 -53 20 -20 36 -41 36 -47 0 -6 -16 -25 -35
-44 -38 -37 -42 -51 -21 -70 12 -9 23 -4 61 31 l46 42 38 -37 c38 -37 70 -45
78 -19 3 7 -14 32 -36 55 l-40 43 40 41 c27 27 38 46 33 57 -10 27 -35 20 -76
-20 l-38 -37 -38 37 c-40 39 -69 47 -79 21z m72 -44 l39 -40 41 40 c55 54 80
51 27 -3 -23 -23 -42 -47 -42 -52 0 -5 18 -28 41 -51 22 -23 37 -44 32 -47 -6
-4 -27 12 -48 33 -22 22 -44 40 -49 40 -6 0 -30 -19 -53 -42 -54 -53 -57 -28
-3 27 l40 41 -40 39 c-39 38 -49 55 -32 55 4 0 26 -18 47 -40z"/>
<path d="M428 252 c-64 -39 -72 -126 -18 -180 69 -69 184 -31 197 65 9 65 -46
141 -94 131 -14 -3 -11 -8 14 -21 58 -31 78 -84 52 -141 -14 -30 -72 -60 -103
-52 -96 24 -112 147 -26 191 17 9 30 18 30 20 0 10 -26 4 -52 -13z"/>
<path d="M455 228 c-51 -29 -61 -93 -20 -133 31 -32 75 -32 111 -1 73 63 -8
182 -91 134z m84 -34 c26 -34 26 -54 1 -82 -42 -45 -110 -17 -110 44 0 61 71
86 109 38z"/>
</g>
</svg>
