<?xml version="1.0" standalone="no"?>
<!DOCTYPE svg PUBLIC "-//W3C//DTD SVG 20010904//EN"
 "http://www.w3.org/TR/2001/REC-SVG-20010904/DTD/svg10.dtd">
<svg version="1.0" xmlns="http://www.w3.org/2000/svg"
 width="974.000000pt" height="918.000000pt" viewBox="0 0 974.000000 918.000000"
 preserveAspectRatio="xMidYMid meet">

<g transform="translate(0.000000,918.000000) scale(0.100000,-0.100000)"
fill="#000000" stroke="none">
<path d="M4579 6963 c-1 -10 -5 -26 -23 -93 -8 -30 -18 -71 -21 -90 -3 -19 -9
-38 -13 -41 -4 -3 -42 -11 -85 -18 -71 -11 -81 -11 -98 5 -10 9 -16 20 -14 24
3 4 -5 19 -16 34 -11 14 -18 26 -15 26 3 0 -2 9 -12 20 -9 12 -17 24 -17 28 0
4 -6 21 -13 38 l-13 32 -72 -20 c-40 -10 -83 -21 -97 -24 -21 -4 -102 -26
-145 -38 -5 -1 -27 -6 -47 -11 l-38 -7 0 -129 0 -129 -42 -17 c-24 -10 -45
-16 -47 -14 -2 1 -7 -2 -10 -7 -3 -5 -16 -12 -28 -16 -17 -6 -36 8 -107 79
-47 47 -92 85 -100 85 -17 0 -111 -53 -138 -78 -10 -8 -18 -11 -18 -6 0 5 -4
5 -8 -1 -6 -9 -35 -26 -123 -72 -51 -26 -52 -33 -14 -141 34 -99 43 -142 27
-142 -4 0 -25 -16 -47 -35 -63 -56 -67 -57 -108 -30 -20 14 -39 25 -42 25 -3
0 -14 8 -25 18 -10 9 -42 30 -69 45 l-51 28 -146 -146 c-146 -145 -146 -145
-134 -175 7 -16 19 -35 26 -41 8 -6 21 -26 30 -44 8 -18 24 -42 35 -54 11 -11
17 -21 13 -21 -3 0 -1 -7 6 -15 10 -12 8 -20 -9 -41 -12 -15 -21 -30 -21 -35
0 -4 -11 -20 -25 -35 -19 -20 -31 -25 -52 -21 -52 9 -153 38 -179 51 -39 21
-57 10 -91 -52 -17 -31 -39 -72 -49 -91 -11 -19 -25 -42 -32 -51 -8 -9 -29
-44 -47 -77 l-34 -60 72 -65 c40 -36 85 -76 101 -89 28 -24 28 -25 13 -61 -8
-20 -13 -39 -9 -42 3 -3 1 -6 -5 -6 -5 0 -16 -18 -23 -41 l-14 -41 -75 6 c-42
4 -103 9 -137 12 l-61 6 -27 -99 c-37 -134 -67 -244 -72 -270 -4 -19 6 -27 65
-57 38 -19 72 -32 75 -29 3 4 6 2 6 -4 0 -6 20 -19 46 -30 l45 -18 -5 -55
c-10 -94 -18 -111 -58 -125 -21 -7 -39 -11 -41 -8 -2 2 -17 -1 -33 -8 -16 -6
-42 -12 -58 -15 -16 -2 -44 -8 -62 -14 l-34 -12 0 -197 c0 -232 -15 -208 155
-238 l110 -19 7 -40 c4 -21 10 -60 13 -86 l6 -46 -53 -28 c-29 -15 -75 -38
-103 -52 -27 -14 -52 -29 -53 -34 -2 -4 -7 -6 -10 -4 -4 2 -13 -2 -20 -10 -8
-9 -9 -14 -2 -14 6 0 8 -5 5 -10 -4 -6 -1 -17 5 -25 7 -8 10 -15 7 -15 -5 0
23 -113 64 -254 l21 -69 76 7 c42 3 102 9 132 12 62 7 51 17 99 -100 l21 -50
-73 -69 c-39 -37 -84 -80 -99 -94 l-28 -26 19 -31 c10 -17 38 -65 61 -106 23
-41 47 -78 53 -82 7 -4 8 -8 4 -8 -6 0 50 -97 68 -117 2 -3 128 34 170 50 17
7 34 11 39 9 4 -1 14 2 22 9 14 11 26 1 82 -66 44 -53 46 -63 20 -111 -12 -24
-25 -44 -28 -44 -3 0 -14 -17 -25 -38 -11 -20 -22 -39 -25 -42 -3 -3 -12 -18
-20 -33 l-14 -28 139 -135 c76 -74 141 -134 145 -134 4 0 32 18 63 41 32 22
57 36 57 32 0 -4 7 1 15 11 8 11 15 16 15 12 0 -4 13 2 29 13 16 12 32 21 36
21 3 0 35 -20 70 -45 l64 -46 -16 -52 c-8 -29 -23 -78 -34 -109 -10 -32 -19
-66 -19 -77 0 -19 54 -56 210 -144 19 -10 54 -31 78 -44 24 -14 46 -23 50 -19
4 3 45 44 92 91 l85 84 80 -33 80 -34 -3 -124 -4 -125 29 -11 c15 -6 51 -17
78 -23 64 -14 67 -15 85 -22 14 -6 91 -27 167 -47 22 -5 35 -4 41 4 14 16 92
185 92 198 0 7 22 8 68 2 37 -4 77 -8 90 -9 12 -1 26 -6 31 -11 5 -5 21 -60
36 -121 l27 -113 209 0 c202 0 209 1 210 20 1 11 2 23 3 28 3 9 16 89 22 127
10 62 9 62 110 75 52 7 96 11 97 9 2 -2 25 -50 52 -107 27 -56 55 -102 62
-102 7 0 63 14 125 31 62 17 138 37 168 45 83 22 91 25 86 32 -4 7 -10 195 -7
233 0 9 11 20 24 24 12 4 27 9 32 10 6 2 34 14 63 27 l54 23 46 -51 c26 -28
64 -70 85 -93 l38 -42 32 20 c18 11 56 32 85 47 28 15 52 31 52 37 0 6 3 7 6
4 4 -4 19 2 33 12 14 10 49 30 78 46 61 32 68 46 48 86 -9 16 -13 29 -11 29 5
0 -13 58 -30 100 -21 50 -14 66 41 106 30 21 55 42 55 47 0 18 51 3 147 -45
l104 -52 72 71 c40 39 103 100 140 135 l68 65 -63 93 c-35 50 -67 98 -73 105
-11 17 4 47 54 105 l38 44 109 -37 c61 -20 114 -37 120 -37 11 1 74 92 74 108
0 7 3 12 8 12 4 0 16 17 27 38 11 20 22 39 25 42 6 6 46 76 67 117 l16 33 -64
57 c-35 32 -79 72 -98 89 -28 25 -33 35 -24 45 6 8 12 17 12 21 1 5 8 23 15
40 8 18 17 41 20 51 5 15 20 17 129 17 88 0 128 4 135 13 7 9 74 232 87 291 1
6 5 18 8 26 19 45 13 63 -28 79 -22 8 -73 34 -115 56 -57 31 -74 45 -73 60 1
11 4 46 7 79 3 32 7 60 9 62 4 5 98 32 137 39 14 3 34 9 45 14 11 5 32 12 48
15 l27 6 0 190 0 189 -29 15 c-16 9 -42 18 -59 21 -17 3 -51 14 -76 25 -26 11
-50 20 -54 20 -16 1 -42 12 -43 18 0 4 -3 25 -6 47 -12 89 -14 86 62 128 39
21 89 50 111 63 l42 23 -48 188 -47 188 -134 0 -134 0 -12 38 c-7 20 -20 51
-29 68 -18 35 -24 26 110 166 54 56 58 64 45 80 -14 18 -20 28 -61 102 -28 50
-81 142 -95 166 -7 11 -16 28 -19 38 -7 19 -22 21 -56 8 -22 -9 -56 -20 -61
-21 -10 0 -108 -38 -114 -43 -15 -16 -31 -4 -69 51 -45 64 -58 92 -43 92 6 0
7 5 4 10 -3 6 -1 10 4 10 6 0 11 5 11 10 0 6 11 28 25 50 14 22 23 40 21 40
-3 0 6 19 19 42 l23 41 -30 38 c-17 21 -36 36 -42 32 -6 -3 -8 -2 -3 2 9 10
-199 216 -222 220 -9 1 -18 -1 -21 -4 -11 -14 -179 -111 -191 -111 -8 0 -35
20 -61 43 -55 49 -58 65 -28 151 11 32 21 68 23 79 1 12 6 27 9 33 7 11 -104
83 -237 154 -33 17 -64 36 -70 41 -17 17 -35 9 -77 -37 -128 -138 -114 -131
-185 -99 -32 14 -65 30 -73 34 -12 6 -16 34 -18 129 l-3 121 -37 10 c-20 6
-46 12 -57 14 -11 2 -27 7 -35 10 -8 4 -44 13 -80 22 -36 8 -95 23 -132 34
l-67 18 -17 -25 c-9 -13 -17 -30 -18 -36 -1 -6 -9 -22 -19 -36 -9 -13 -17 -28
-17 -33 0 -5 -7 -25 -16 -43 -18 -38 -21 -38 -140 -19 l-41 7 -17 92 c-29 151
-3 136 -236 136 -110 0 -200 -3 -201 -7z m-1474 -1868 c171 -159 371 -346 445
-415 74 -70 152 -142 174 -161 l39 -33 -7 89 -6 90 25 -30 c46 -57 158 -200
170 -220 9 -13 15 -80 20 -190 l6 -170 -33 36 c-41 43 -303 335 -549 610 -101
113 -278 310 -394 438 -115 128 -221 247 -235 264 l-24 32 29 -26 c17 -14 170
-156 340 -314z m2599 253 c8 -30 8 -632 0 -652 -5 -12 -21 -16 -69 -16 l-62 0
-7 53 c-21 161 -79 299 -154 370 -84 78 -74 77 -719 77 -310 0 -563 -2 -563
-5 0 -3 48 -60 106 -128 173 -199 275 -316 349 -402 249 -288 317 -366 373
-431 l62 -73 -32 -38 c-18 -20 -40 -44 -48 -53 -8 -9 -157 -175 -330 -370
-173 -195 -379 -426 -458 -513 -85 -95 -139 -164 -134 -169 5 -5 317 -8 748
-6 l739 3 57 28 c104 51 177 164 199 307 20 132 12 120 75 120 l55 0 -6 -32
c-3 -18 -21 -143 -40 -278 -53 -363 -77 -525 -79 -527 -1 -2 -429 -7 -952 -13
-522 -5 -1054 -12 -1182 -14 -128 -2 -232 -1 -230 4 2 4 181 207 398 451 392
441 790 888 818 921 17 20 43 -14 -278 373 -382 460 -807 976 -839 1018 -13
16 41 17 1092 17 l1105 0 6 -22z m42 -1278 c95 -113 270 -322 390 -464 121
-143 278 -330 349 -415 72 -86 179 -214 239 -286 60 -71 118 -141 130 -155 25
-30 -225 215 -762 749 -222 221 -404 401 -406 401 -2 0 -47 -101 -101 -225
-54 -124 -99 -224 -101 -222 -16 16 -411 563 -409 565 2 2 57 -26 122 -63 65
-37 133 -76 152 -87 18 -10 35 -18 36 -16 3 3 83 306 113 427 l16 63 30 -34
c17 -18 108 -126 202 -238z"/>
</g>
</svg>
