<?xml version="1.0" standalone="no"?>
<!DOCTYPE svg PUBLIC "-//W3C//DTD SVG 20010904//EN"
 "http://www.w3.org/TR/2001/REC-SVG-20010904/DTD/svg10.dtd">
<svg version="1.0" xmlns="http://www.w3.org/2000/svg"
 width="974.000000pt" height="918.000000pt" viewBox="0 0 974.000000 918.000000"
 preserveAspectRatio="xMidYMid meet">

<g transform="translate(0.000000,918.000000) scale(0.100000,-0.100000)"
fill="#000000" stroke="none">
<path d="M4662 7873 c-5 -16 -37 -107 -71 -203 -81 -226 -99 -268 -122 -275
-10 -4 -19 -13 -19 -20 0 -14 41 -14 138 1 37 6 44 24 8 24 -38 0 -49 22 -35
70 7 23 18 43 23 45 6 2 45 6 87 9 l76 5 23 -50 c25 -53 20 -68 -22 -69 -10 0
-18 -5 -18 -11 0 -8 34 -9 118 -4 64 4 120 9 125 12 12 7 8 23 -6 23 -25 0
-54 44 -168 257 -63 117 -117 213 -121 213 -3 0 -10 -12 -16 -27z m24 -234
c19 -39 34 -72 32 -74 -2 -1 -31 -5 -66 -8 -46 -4 -62 -2 -59 6 2 7 14 42 27
80 13 37 25 67 27 67 1 0 19 -32 39 -71z"/>
<path d="M3982 7838 c-76 -7 -112 -14 -109 -22 2 -6 12 -10 23 -9 43 6 47 -7
65 -218 19 -217 16 -239 -26 -239 -16 0 -25 -6 -25 -15 0 -13 9 -15 48 -10 26
3 93 10 149 14 160 14 246 66 281 170 29 85 4 200 -56 264 -65 69 -144 84
-350 65z m204 -53 c41 -27 66 -97 72 -201 7 -142 -29 -204 -119 -204 -16 0
-29 1 -30 3 -5 14 -36 414 -32 421 8 13 80 0 109 -19z"/>
<path d="M5390 7811 c-238 -77 -267 -387 -46 -486 74 -34 134 -40 198 -21 65
20 85 34 93 69 l7 28 -51 -32 c-92 -57 -209 -36 -242 44 -8 19 -14 65 -13 114
1 69 5 91 30 139 32 64 63 91 116 103 76 17 162 -43 175 -122 6 -40 20 -57 28
-35 3 7 11 48 19 91 11 65 11 77 0 77 -8 0 -14 -4 -14 -10 0 -17 -31 -11 -89
17 -59 29 -160 41 -211 24z"/>
<path d="M5960 7659 c-79 -24 -158 -109 -181 -193 -15 -53 -6 -133 20 -183 64
-126 248 -187 363 -120 49 29 98 79 125 130 26 48 24 169 -4 223 -57 108 -212
176 -323 143z m180 -54 c69 -36 76 -119 20 -241 -63 -140 -123 -192 -198 -172
-80 20 -96 99 -49 229 33 89 83 159 128 182 42 21 62 21 99 2z"/>
<path d="M3350 7598 c0 -13 -9 -121 -20 -242 -19 -213 -32 -286 -51 -286 -5 0
-9 -7 -9 -16 0 -9 4 -14 8 -12 4 2 42 16 85 32 77 29 93 48 34 43 -26 -2 -33
3 -41 26 -19 53 0 77 85 108 l77 28 31 -34 c37 -41 39 -57 9 -78 -46 -31 -7
-27 100 10 113 39 137 56 90 61 -25 3 -142 119 -337 335 -48 52 -61 58 -61 25z
m84 -232 c25 -29 46 -56 46 -59 0 -3 -28 -14 -61 -26 l-62 -21 7 47 c3 25 6
61 6 79 0 19 4 34 9 34 5 0 30 -24 55 -54z"/>
<path d="M6415 7491 c-3 -5 4 -12 14 -16 43 -13 39 -33 -42 -205 -19 -41 -48
-105 -65 -142 -31 -68 -37 -73 -89 -68 -44 3 -22 -17 57 -53 82 -37 108 -36
65 1 -14 12 -25 27 -25 33 0 11 123 289 141 319 6 9 9 -71 7 -207 -1 -123 1
-225 4 -228 5 -5 98 77 321 284 34 31 39 45 -82 -219 -48 -105 -48 -105 -83
-105 -20 0 -39 -3 -42 -6 -4 -3 48 -32 115 -63 122 -57 158 -65 104 -22 l-29
24 57 128 c32 71 72 158 90 194 31 63 33 65 70 64 20 -1 37 3 37 8 0 5 -42 28
-92 52 l-93 44 -65 -62 c-36 -33 -93 -88 -128 -121 l-63 -60 3 178 3 178 -87
39 c-98 45 -95 44 -103 31z"/>
<path d="M2855 7379 c-55 -39 -98 -73 -95 -77 3 -4 10 -5 15 -3 42 17 61 11
85 -26 14 -21 67 -98 118 -172 50 -74 92 -139 92 -143 0 -18 -50 -58 -71 -58
-12 0 -73 18 -135 41 l-112 41 19 32 c33 55 19 121 -37 165 -41 32 -85 36
-138 13 -55 -25 -286 -182 -286 -195 0 -5 6 -7 13 -4 6 3 19 8 27 11 9 4 23 1
32 -6 15 -13 138 -188 207 -296 l34 -53 -23 -24 c-13 -14 -20 -28 -16 -32 8
-8 208 128 214 147 3 9 0 11 -14 5 -53 -22 -58 -19 -112 60 -40 59 -49 77 -37
81 8 4 71 -15 140 -40 l125 -46 180 121 c99 67 177 125 174 131 -4 6 -10 6
-17 -1 -6 -6 -22 -11 -36 -11 -22 0 -42 24 -131 151 -131 189 -134 194 -120
219 6 11 15 20 20 20 6 0 10 5 10 10 0 21 -28 7 -125 -61z m-237 -263 c32 -17
62 -65 62 -99 0 -37 -14 -61 -49 -86 l-29 -21 -56 80 c-31 43 -56 84 -56 89 0
12 68 50 90 50 8 0 25 -5 38 -13z"/>
<path d="M7120 7050 c0 -6 7 -18 15 -26 8 -9 15 -21 15 -27 0 -12 -169 -226
-236 -299 -39 -42 -49 -45 -75 -22 -11 9 -19 12 -23 5 -6 -9 179 -171 196
-171 13 0 9 17 -7 30 -26 21 -17 50 36 116 28 35 53 64 56 64 4 0 20 -11 37
-24 108 -82 201 -74 247 22 37 76 10 127 -134 245 -117 95 -127 102 -127 87z
m152 -157 c39 -45 27 -96 -32 -147 -36 -30 -66 -33 -97 -8 l-22 17 62 77 c34
42 65 77 68 78 3 0 13 -8 21 -17z"/>
<path d="M2010 6716 c0 -3 18 -44 41 -93 23 -48 51 -110 64 -138 12 -27 40
-86 61 -130 23 -49 38 -96 39 -122 2 -55 8 -60 35 -26 12 15 37 45 56 65 34
37 33 60 -2 33 -32 -24 -52 -18 -74 26 l-21 41 25 31 c13 18 37 47 53 66 l29
34 52 -17 c38 -13 52 -23 52 -36 0 -10 -4 -22 -10 -25 -12 -8 -13 -25 -1 -25
8 0 161 174 161 183 0 3 -17 3 -39 0 -30 -4 -91 11 -269 66 -219 68 -252 77
-252 67z m192 -178 c37 -12 68 -27 68 -32 -1 -6 -19 -31 -40 -55 l-40 -44 -26
59 c-14 32 -30 67 -35 76 -12 23 -9 23 73 -4z"/>
<path d="M7577 6646 c5 -34 4 -36 -103 -113 -60 -43 -130 -98 -157 -123 -64
-60 -73 -110 -34 -187 34 -65 109 -133 151 -134 75 -3 82 1 304 157 69 48 83
52 106 29 14 -15 36 -20 36 -10 0 3 -23 37 -52 75 -50 67 -79 85 -56 35 6 -13
8 -30 5 -38 -6 -17 -168 -139 -238 -180 -61 -36 -114 -36 -152 -1 -58 54 -56
107 7 158 82 67 256 186 272 186 9 0 24 -10 33 -22 10 -12 21 -17 24 -11 6 9
-132 212 -145 213 -4 0 -4 -15 -1 -34z"/>
<path d="M1752 6396 c-45 -52 -82 -100 -82 -107 0 -8 6 -6 18 4 32 29 61 20
128 -39 l64 -56 -52 -59 c-28 -32 -55 -59 -59 -59 -11 0 -122 98 -132 116 -5
9 -3 24 7 39 18 27 20 35 8 35 -13 0 -182 -197 -175 -204 4 -3 14 1 24 10 12
10 27 14 42 10 35 -8 317 -256 317 -279 0 -10 -5 -27 -10 -38 -7 -12 -7 -19
-1 -19 14 0 171 182 171 199 0 11 -6 9 -23 -7 -13 -12 -29 -22 -36 -22 -7 0
-46 28 -86 62 l-74 61 19 25 c11 13 35 42 55 63 l36 40 47 -40 c26 -21 60 -53
77 -70 29 -31 29 -32 11 -61 -34 -58 4 -29 88 67 81 93 104 136 49 93 -23 -17
-28 -18 -52 -5 -14 7 -39 27 -56 42 -16 16 -78 70 -137 121 -81 70 -108 99
-108 117 0 13 5 27 10 30 12 7 13 25 2 25 -4 0 -45 -42 -90 -94z"/>
<path d="M7838 6195 c-54 -40 -62 -59 -20 -48 49 13 82 7 112 -22 17 -16 30
-32 30 -35 0 -4 -59 -49 -130 -101 -72 -52 -147 -106 -167 -121 -42 -33 -64
-35 -88 -8 -10 11 -21 17 -26 14 -4 -2 12 -33 37 -67 25 -34 59 -83 77 -109
34 -51 54 -62 42 -25 -19 60 -41 39 292 277 l41 30 21 -34 c26 -42 27 -76 1
-109 -19 -24 -26 -47 -14 -47 12 0 113 76 111 84 -6 20 -253 355 -262 355 -5
0 -31 -15 -57 -34z"/>
<path d="M1395 5828 c-35 -73 -37 -111 -3 -65 11 15 28 27 37 27 19 0 226 -98
220 -104 -2 -2 -81 -20 -176 -41 -94 -21 -176 -41 -182 -44 -15 -10 -80 -154
-74 -164 3 -5 15 1 27 12 12 12 32 21 43 21 30 0 350 -156 361 -176 6 -11 7
-27 1 -41 -7 -19 4 -43 16 -32 10 11 74 163 70 167 -3 3 -16 -7 -29 -21 -30
-32 -34 -31 -216 55 l-135 65 140 33 c338 79 386 92 374 104 -2 2 -97 49 -211
104 -115 56 -208 107 -209 114 -1 7 0 23 1 36 3 43 -21 21 -55 -50z"/>
<path d="M7726 5592 c-7 -12 50 -156 63 -160 6 -2 10 11 8 35 l-2 38 54 0 54
0 28 -75 29 -75 -39 -39 c-34 -34 -42 -38 -55 -27 -9 8 -16 20 -16 27 0 8 -7
14 -15 14 -8 0 -15 -1 -15 -3 0 -16 88 -229 95 -230 6 -1 11 10 13 25 2 19 53
76 188 209 101 101 181 186 176 190 -4 4 -118 13 -255 21 -225 13 -250 17
-277 36 -16 12 -31 18 -34 14z m332 -90 l53 -7 -61 -54 c-34 -29 -63 -52 -64
-50 -2 2 -13 30 -25 62 l-21 57 33 -1 c17 -1 56 -4 85 -7z"/>
<path d="M1091 5069 c-17 -99 -34 -193 -38 -210 -7 -36 13 -40 27 -5 5 13 13
27 18 30 13 8 404 -63 420 -76 7 -6 12 -23 10 -36 -2 -14 2 -27 8 -29 13 -4
90 416 77 427 -14 13 -144 53 -150 46 -4 -3 -4 -7 -2 -9 58 -41 79 -62 89 -93
14 -40 8 -140 -9 -157 -10 -10 -157 8 -181 23 -18 11 -4 45 26 58 14 7 40 12
59 12 22 0 35 5 35 13 0 17 -248 63 -262 49 -5 -5 4 -14 24 -22 49 -20 68 -40
68 -72 0 -20 -5 -28 -17 -28 -23 0 -163 27 -168 32 -9 9 24 120 40 138 10 11
37 25 59 32 63 18 63 25 0 37 -33 7 -68 14 -80 16 -20 4 -23 -6 -53 -176z"/>
<path d="M8146 5080 c-27 -10 -64 -34 -83 -52 -36 -35 -73 -121 -73 -169 0
-26 -2 -29 -19 -19 -26 13 -31 13 -31 -5 0 -27 -40 -17 -53 13 -18 42 -36 30
-27 -19 13 -71 68 -102 111 -63 17 16 19 15 29 -10 5 -15 10 -31 10 -35 0 -15
59 -90 80 -101 13 -7 26 -7 37 -2 13 8 11 13 -17 33 -64 47 -90 152 -55 219
35 67 202 110 310 80 84 -24 131 -106 105 -187 -16 -48 -35 -70 -82 -94 -59
-30 -48 -41 35 -34 91 8 117 13 117 24 0 5 -10 11 -21 14 -19 5 -21 11 -15 44
17 100 18 132 2 185 -19 65 -80 139 -140 170 -59 30 -157 34 -220 8z"/>
<path d="M1020 4750 c0 -6 7 -13 15 -16 21 -8 19 -29 -9 -83 -67 -125 -58
-241 25 -335 95 -107 237 -126 347 -46 85 62 133 202 116 338 l-9 66 -75 15
c-70 15 -75 18 -78 44 -2 15 -8 27 -13 27 -5 0 -9 -1 -9 -3 0 -1 -9 -49 -20
-107 -11 -58 -20 -111 -20 -117 0 -22 16 -14 28 12 13 28 28 30 102 14 39 -8
51 -16 56 -33 9 -37 -13 -100 -47 -131 -30 -29 -33 -30 -132 -30 -96 0 -107 2
-170 33 -76 37 -97 67 -97 132 0 82 53 147 138 170 23 6 42 15 42 19 0 5 -40
16 -89 25 -105 19 -101 19 -101 6z"/>
<path d="M8025 4533 c2 -16 7 -54 10 -85 6 -56 25 -82 25 -34 0 38 21 49 73
36 l44 -12 7 -66 c10 -107 10 -105 -38 -131 -47 -24 -66 -22 -66 9 0 18 -17
37 -25 28 -3 -2 1 -59 7 -126 8 -84 15 -122 23 -122 7 0 15 10 19 23 5 23 15
29 329 206 70 40 127 76 127 79 0 4 -91 38 -202 76 -256 87 -296 104 -303 127
-10 31 -35 24 -30 -8z m275 -138 c30 -9 58 -20 62 -24 5 -4 -23 -24 -61 -44
-68 -37 -69 -37 -75 -15 -11 43 -7 111 7 106 6 -3 37 -13 67 -23z"/>
<path d="M8580 4455 c0 -7 8 -18 17 -24 16 -8 16 -14 5 -55 -6 -26 -12 -56
-12 -67 0 -32 53 -79 89 -79 36 0 43 25 11 35 -23 7 -24 13 -6 80 12 43 12 53
-2 77 -24 41 -102 67 -102 33z"/>
<path d="M970 4076 c0 -12 3 -51 6 -85 7 -65 25 -78 34 -26 6 34 22 39 167 50
l95 7 -105 -101 c-58 -56 -120 -114 -137 -130 l-32 -28 7 -91 c5 -69 11 -92
21 -92 8 0 14 10 14 23 0 45 24 53 215 70 99 9 190 14 203 10 15 -4 25 -15 29
-34 9 -45 34 -37 28 9 -2 20 -7 63 -10 95 -6 55 -25 81 -25 34 0 -50 -16 -57
-170 -72 -80 -8 -155 -15 -168 -15 -17 0 21 42 165 184 104 101 186 187 183
190 -3 3 -105 -4 -225 -14 -121 -11 -226 -20 -233 -20 -7 0 -21 13 -30 30 -20
36 -32 38 -32 6z"/>
<path d="M8189 3947 c-96 -36 -159 -125 -167 -237 -5 -80 7 -123 53 -183 68
-89 206 -125 313 -82 56 23 125 101 142 161 40 142 -11 274 -129 330 -47 23
-165 28 -212 11z m182 -144 c110 -30 160 -100 124 -176 -19 -40 -50 -57 -120
-64 -56 -6 -187 18 -241 43 -66 32 -91 95 -63 157 29 64 153 80 300 40z"/>
<path d="M1415 3544 c-33 -8 -70 -16 -83 -19 -35 -8 -18 -22 34 -28 53 -6 91
-30 117 -75 23 -40 37 -87 28 -100 -8 -13 -168 -72 -175 -64 -3 3 -6 18 -6 33
0 20 11 37 42 63 23 20 39 38 36 41 -8 8 -245 -79 -247 -90 0 -6 21 -10 49
-10 38 0 55 -5 72 -22 14 -15 19 -26 13 -32 -10 -9 -175 -73 -175 -68 0 2 -9
29 -20 61 -25 70 -16 112 33 150 17 14 28 28 24 32 -6 7 -125 -31 -140 -45 -9
-9 133 -401 146 -401 5 0 7 15 3 34 -4 22 -2 37 6 43 23 18 352 135 383 137
22 1 32 -5 40 -21 12 -27 41 -32 30 -5 -4 9 -38 103 -77 207 -38 105 -71 190
-71 191 -1 1 -29 -5 -62 -12z"/>
</g>
</svg>
